# xmcd
#
# Track frame offsets:
#	150
#	32450
#	44712
#	57800
#	76750
#	95775
#	108300
#	130900
#	153762
#	170012
#	189750
#	204137
#	219725
#	237125
#	256950
#	273550
#	295812
#	309325
#
# Disc length: 4377 seconds
#
# Revision: 1
# Processed by: cddbd v1.5PL3 Copyright (c) Steve Scherf et al.
# Submitted via: AudioConverter v4.0 Copyright (c) Dennis Rebentrost
#
DISCID=f2111712
DTITLE=Clapton, Eric - The Cream Of Clapton
DYEAR=1994
DGENRE=Rhythm and Blues
TTITLE0=Layla
TTITLE1=Badge
TTITLE2=I Feel Free
TTITLE3=Sunshine Of Your Love
TTITLE4=Crossroads
TTITLE5=Strange Brew
TTITLE6=White Room
TTITLE7=Bell Bottom Blues
TTITLE8=Cocaine
TTITLE9=I Shot The Sheriff
TTITLE10=After Midnight
TTITLE11=Swing Love Sweet Chariot
TTITLE12=Lay Down Sally
TTITLE13=Knockin' On Heavens Door
TTITLE14=Wonderful Tonight
TTITLE15=Let It Grow
TTITLE16=Promises
TTITLE17=I Can't Stand It
EXTD=
EXTT0=
EXTT1=
EXTT2=
EXTT3=
EXTT4=
EXTT5=
EXTT6=
EXTT7=
EXTT8=
EXTT9=
EXTT10=
EXTT11=
EXTT12=
EXTT13=
EXTT14=
EXTT15=
EXTT16=
EXTT17=
PLAYORDER=
